<?xml version="1.0" standalone="no"?>
<!DOCTYPE svg PUBLIC "-//W3C//DTD SVG 20010904//EN"
 "http://www.w3.org/TR/2001/REC-SVG-20010904/DTD/svg10.dtd">
<svg version="1.0" xmlns="http://www.w3.org/2000/svg"
 width="180.000000pt" height="180.000000pt" viewBox="0 0 180.000000 180.000000"
 preserveAspectRatio="xMidYMid meet">
<metadata>
Created by potrace 1.14, written by Peter Selinger 2001-2017
</metadata>
<g transform="translate(0.000000,180.000000) scale(0.100000,-0.100000)"
fill="#000000" stroke="none">
<path d="M1320 1786 c-118 -31 -202 -101 -257 -213 l-38 -76 -1 -254 c-1 -140
-3 -256 -6 -258 -2 -3 -58 -6 -124 -8 l-119 -4 1 237 c1 259 -6 310 -53 390
-38 65 -99 119 -173 154 -59 28 -74 31 -165 31 -82 -1 -109 -5 -150 -23 -106
-49 -189 -144 -220 -254 -14 -49 -16 -127 -13 -635 l3 -578 32 -66 c157 -319
598 -292 721 44 12 33 16 96 17 283 2 133 5 246 8 251 4 6 59 11 124 12 l118
2 0 -245 c-1 -212 2 -252 18 -302 63 -194 263 -305 467 -260 87 20 194 104
242 192 47 87 49 127 45 729 -2 308 -5 567 -8 575 -25 83 -95 177 -166 224
-82 54 -211 76 -303 52z m-838 -167 c51 -27 88 -63 110 -107 22 -45 23 -58 24
-300 1 -179 -2 -255 -10 -257 -6 -2 -24 -6 -41 -8 -95 -14 -278 -79 -356 -127
l-50 -30 3 342 c3 329 4 345 25 383 44 83 122 126 214 120 32 -2 68 -9 81 -16z
m1045 -12 c47 -30 85 -77 102 -126 16 -49 14 -201 -4 -244 -17 -41 -69 -97
-122 -130 -69 -43 -292 -115 -314 -102 -4 3 -7 103 -7 222 0 233 6 267 53 329
13 17 47 43 76 57 68 35 156 32 216 -6z m113 -940 c-1 -301 -3 -336 -19 -372
-39 -84 -122 -137 -211 -137 -88 1 -160 47 -203 127 -20 37 -21 57 -24 298 -1
141 1 257 5 258 137 16 373 99 427 150 5 5 13 9 17 9 5 0 8 -150 8 -333z
m-1024 -109 c-2 -219 -3 -236 -24 -275 -72 -136 -255 -168 -361 -62 -59 58
-66 82 -66 215 l0 121 39 48 c22 26 62 62 90 80 72 45 234 101 303 104 21 1
21 1 19 -231z"/>
</g>
</svg>
