<svg id="Layer_1" data-name="Layer 1" xmlns="http://www.w3.org/2000/svg" viewBox="0 0 1566 492"><defs><style>.cls-1{fill:#fe8100;}.cls-2{fill:#faf9f9;}.cls-3{fill:#e17726;stroke:#e17726;}.cls-10,.cls-11,.cls-12,.cls-3,.cls-4,.cls-5,.cls-6,.cls-7,.cls-8,.cls-9{stroke-linecap:round;stroke-linejoin:round;}.cls-4{fill:#e27625;stroke:#e27625;}.cls-5{fill:#d5bfb2;stroke:#d5bfb2;}.cls-6{fill:#233447;stroke:#233447;}.cls-7{fill:#cc6228;stroke:#cc6228;}.cls-8{fill:#e27525;stroke:#e27525;}.cls-9{fill:#f5841f;stroke:#f5841f;}.cls-10{fill:#c0ac9d;stroke:#c0ac9d;}.cls-11{fill:#161616;stroke:#161616;}.cls-12,.cls-13{fill:#763e1a;}.cls-12{stroke:#763e1a;}.cls-14{fill:#fff;}</style></defs><title>metamask</title><rect class="cls-1" x="6" width="1560" height="492"/><rect class="cls-2" width="474" height="492"/><polygon class="cls-3" points="385.75 95.8 259.375 189.55 282.875 134.3 385.75 95.8"/><polygon class="cls-4" points="94.25 95.8 219.5 190.425 197.125 134.3 94.25 95.8"/><polygon class="cls-4" points="340.25 313.175 306.625 364.675 378.625 384.55 399.25 314.3 340.25 313.175"/><polygon class="cls-4" points="80.875 314.3 101.375 384.55 173.25 364.675 139.75 313.175 80.875 314.3"/><polygon class="cls-4" points="169.375 226.175 149.375 256.425 220.625 259.675 218.25 182.8 169.375 226.175"/><polygon class="cls-4" points="310.625 226.175 261 181.925 259.375 259.675 330.625 256.425 310.625 226.175"/><polygon class="cls-4" points="173.25 364.675 216.375 343.8 179.25 314.8 173.25 364.675"/><polygon class="cls-4" points="263.625 343.8 306.625 364.675 300.75 314.8 263.625 343.8"/><polygon class="cls-5" points="306.625 364.675 263.625 343.8 267.125 371.8 266.75 383.675 306.625 364.675"/><polygon class="cls-5" points="173.25 364.675 213.25 383.675 213 371.8 216.375 343.8 173.25 364.675"/><polygon class="cls-6" points="214 296.3 178.25 285.8 203.5 274.175 214 296.3"/><polygon class="cls-6" points="266 296.3 276.5 274.175 301.875 285.8 266 296.3"/><polygon class="cls-7" points="173.25 364.675 179.5 313.175 139.75 314.3 173.25 364.675"/><polygon class="cls-7" points="300.5 313.175 306.625 364.675 340.25 314.3 300.5 313.175"/><polygon class="cls-7" points="330.625 256.425 259.375 259.675 266 296.3 276.5 274.175 301.875 285.8 330.625 256.425"/><polygon class="cls-7" points="178.25 285.8 203.5 274.175 214 296.3 220.625 259.675 149.375 256.425 178.25 285.8"/><polygon class="cls-8" points="149.375 256.425 179.25 314.8 178.25 285.8 149.375 256.425"/><polygon class="cls-8" points="301.875 285.8 300.75 314.8 330.625 256.425 301.875 285.8"/><polygon class="cls-8" points="220.625 259.675 214 296.3 222.375 339.55 224.25 282.55 220.625 259.675"/><polygon class="cls-8" points="259.375 259.675 255.875 282.425 257.625 339.55 266 296.3 259.375 259.675"/><polygon class="cls-9" points="266 296.3 257.625 339.55 263.625 343.8 300.75 314.8 301.875 285.8 266 296.3"/><polygon class="cls-9" points="178.25 285.8 179.25 314.8 216.375 343.8 222.375 339.55 214 296.3 178.25 285.8"/><polygon class="cls-10" points="266.75 383.675 267.125 371.8 263.875 369.05 216.125 369.05 213 371.8 213.25 383.675 173.25 364.675 187.25 376.175 215.625 395.8 264.25 395.8 292.75 376.175 306.625 364.675 266.75 383.675"/><polygon class="cls-11" points="263.625 343.8 257.625 339.55 222.375 339.55 216.375 343.8 213 371.8 216.125 369.05 263.875 369.05 267.125 371.8 263.625 343.8"/><polygon class="cls-12" points="391.125 195.675 401.75 143.925 385.75 95.8 263.625 186.425 310.625 226.175 377 245.55 391.625 228.425 385.25 223.8 395.375 214.55 387.625 208.55 397.75 200.8 391.125 195.675"/><polygon class="cls-12" points="78.25 143.925 89 195.675 82.125 200.8 92.375 208.55 84.625 214.55 94.75 223.8 88.375 228.425 103 245.55 169.375 226.175 216.375 186.425 94.25 95.8 78.25 143.925"/><polygon class="cls-9" points="377 245.55 310.625 226.175 330.625 256.425 300.75 314.8 340.25 314.3 399.25 314.3 377 245.55"/><polygon class="cls-9" points="169.375 226.175 103 245.55 80.875 314.3 139.75 314.3 179.25 314.8 149.375 256.425 169.375 226.175"/><polygon class="cls-9" points="259.375 259.675 263.625 186.425 282.875 134.3 197.125 134.3 216.375 186.425 220.625 259.675 222.25 282.675 222.375 339.55 257.625 339.55 257.75 282.675 259.375 259.675"/><path class="cls-13" d="M567.3228,102.9658h28.8989c17.6738,0,31.9082,6.3955,31.9082,26.1992,0,19.1792-14.63,27.63-31.9082,27.63H585.7593v27.63H567.3228Zm27.8291,39.1963c10.1015,0,14.9018-4.5283,14.9018-12.9971,0-8.5029-5.1963-11.5664-14.9018-11.5664h-9.3926v24.5635Z" transform="translate(6 6)"/><path class="cls-13" d="M659.4482,102.9658H681.55l25.37,81.459H687.3726L676.855,143.1841c-2.063-8.1328-4.5425-17.6738-6.5015-26.272h-.5c-1.9936,8.5982-4.2578,18.1392-6.3213,26.272l-10.5869,41.2407H634.0781Zm-8.5805,47.7232h38.978v14.3623h-38.978Z" transform="translate(6 6)"/><path class="cls-13" d="M736.2793,156.8882,710.042,102.9658h19.6929l8.2817,19.56c2.4033,6.2851,4.8276,12.1743,7.3906,18.6743h.5c2.5288-6.5,5.1475-12.3892,7.6411-18.6743l8.1773-19.56h19.2275l-26.2373,53.9224v27.5366H736.2793Z" transform="translate(6 6)"/><path class="cls-13" d="M858.5234,102.9312h19.1455l2.3926,43.3828c.209,6.9653.3477,13.13.4522,20.4433h.4658c1.1387-7.3135,2.6455-13.5683,4-20.4082l5.4746-22.7441h11.8037l5.1348,22.7441c1.2988,6.66,2.77,12.9146,4,20.4082h.5c.1387-7.4936.209-13.6582.417-20.4082l2.3232-43.4179h17.9238l-10.1054,81.4936H902.7764l-4.8428-25.2436a129.4382,129.4382,0,0,1-2.1885-15.5621h-.375c-.5146,4.91-1.1738,10.3814-2.1533,15.5621l-4.6631,25.2436H869.31Z" transform="translate(6 6)"/><path class="cls-13" d="M942.2539,168.9658h19.0215v-50.541H942.2539v-15.459h56.4805v15.459H979.7129v50.541h19.0215v15.459H942.2539Z" transform="translate(6 6)"/><path class="cls-13" d="M1036.2744,118.4248h-24.4189v-15.459h67.2754v15.459h-24.419v66h-18.4375Z" transform="translate(6 6)"/><path class="cls-13" d="M1090.9736,102.9658h18.4707V134.33H1131.54V102.9658h18.4707v81.459H1131.54V150.4341h-22.0957v33.9907h-18.4707Z" transform="translate(6 6)"/><path class="cls-14" d="M571.1074,238.687h22.2007L609.5742,290.01l5.6421,19.5634h.7681l5.4863-19.5634,16.4219-51.3228h22.2012V364.4248H642.5112V307.7217c0-12.7539,2.0635-36.5879,2.9746-48.0576H644.91L637.1606,286.57l-15.8974,44.5186H609.1694L593.5127,286.57l-7.7261-26.9062h-.4555c1.2236,11.47,2.9746,35.3037,2.9746,48.0576v56.7031H571.1074Z" transform="translate(6 6)"/><path class="cls-14" d="M694.0112,238.687h79.2427v16.2485h-59.96v35.669h50.7187v16.249H713.2935v41.3223h61.88v16.249H694.0112Z" transform="translate(6 6)"/><path class="cls-14" d="M828.6758,254.9355h-40.59V238.687h100.461v16.2485H847.958V364.4248H828.6758Z" transform="translate(6 6)"/><path class="cls-14" d="M926.9316,238.687h22.4473L990.915,364.4248H970.3369l-20.2627-68.48c-4.0928-13.6211-8.21-27.66-11.8349-41.8945h-.7676c-3.7813,14.2344-7.67,28.2734-11.7637,41.8945l-20.5742,68.4805H885.3955ZM908.72,313.0176h58.33v15.3857H908.72Z" transform="translate(6 6)"/><path class="cls-14" d="M1008.86,238.687h22.2l16.2666,51.3228,5.6426,19.5634h.7676l5.4863-19.5634,16.4219-51.3228h22.2012V364.4248h-17.583V307.7217c0-12.7539,2.0634-36.5879,2.9756-48.0576h-.5762l-7.75,26.9062-15.8965,44.5186h-12.0937L1031.2656,286.57l-7.7265-26.9062h-.4551c1.2236,11.47,2.9746,35.3037,2.9746,48.0576v56.7031H1008.86Z" transform="translate(6 6)"/><path class="cls-14" d="M1157.3281,238.687h22.4473l41.5361,125.7378h-20.5781l-20.2627-68.48c-4.0928-13.6211-8.21-27.66-11.835-41.8945h-.7675c-3.7813,14.2344-7.67,28.2734-11.7637,41.8945L1135.53,364.4248H1115.792Zm-18.2119,74.3306h58.33v15.3857h-58.33Z" transform="translate(6 6)"/><path class="cls-14" d="M1230.51,348.248l11.32-13.2861c9.5644,8.9776,22.2617,14.9063,35.9326,14.9063,15.918,0,24.7549-7.3243,24.7549-17.4463,0-12.293-9.1826-15.7022-21.64-20.9707l-17.7383-7.7774c-12.8388-5.0644-26.9287-14.3623-26.9287-32.8789,0-19.5947,17.6377-34.4121,42.4629-34.4121a56.4468,56.4468,0,0,1,39.501,15.7676l-9.9531,12.3037c-8.3994-7.0449-17.5342-11.21-30.375-11.21-13.23,0-22.126,6.1231-22.126,16.4122,0,10.913,10.8516,14.8984,21.9268,19.1943l17.0546,7.5137c15.7676,6.1445,27.5538,15.3349,27.5538,33.708,0,20.1826-17.04,36.6562-45.5479,36.6562A66.0909,66.0909,0,0,1,1230.51,348.248Z" transform="translate(6 6)"/><path class="cls-14" d="M1346.9824,238.687h19.5108v59.8941h.6113l48.6787-59.8941h21.8018l-71.0918,87.1509v38.5869h-19.5108Zm37.003,58.62,11.5488-15.1093,46.3721,82.2275h-21.6456Z" transform="translate(6 6)"/></svg>