<svg id="svg" version="1.1" xmlns="http://www.w3.org/2000/svg" xmlns:xlink="http://www.w3.org/1999/xlink" width="400" height="91.30335539831088" viewBox="0, 0, 400,91.30335539831088"><g id="svgg"><path id="path0" d="M251.500 64.327 C 306.766 64.416,306.917 64.418,306.940 64.750 C 306.953 64.933,307.017 65.215,307.083 65.375 C 307.154 65.549,307.128 65.667,307.018 65.667 C 306.916 65.667,306.833 65.587,306.833 65.490 C 306.833 65.393,306.747 65.367,306.641 65.432 C 306.506 65.516,306.532 65.611,306.727 65.753 C 306.931 65.903,306.982 66.124,306.922 66.603 C 306.874 66.988,306.898 67.160,306.982 67.026 C 307.084 66.864,307.145 66.921,307.205 67.236 C 307.276 67.609,307.252 67.640,307.033 67.460 C 306.824 67.287,306.794 67.294,306.862 67.500 C 306.935 67.720,309.691 67.755,330.104 67.792 L 353.263 67.834 353.281 66.917 C 353.296 66.173,353.247 65.998,353.025 65.988 C 352.793 65.978,352.789 65.959,353.000 65.863 C 353.352 65.704,353.449 64.333,353.108 64.333 C 352.972 64.333,352.823 64.427,352.777 64.542 C 352.713 64.698,352.649 64.688,352.519 64.500 C 352.365 64.278,343.471 64.249,274.214 64.243 C 199.735 64.237,198.674 64.241,251.500 64.327 " stroke="none" fill="#62d4cd" fill-rule="evenodd"></path><path id="path1" d="M30.780 17.045 C 30.709 17.390,30.703 17.758,30.768 17.862 C 30.839 17.978,30.811 18.006,30.694 17.933 C 30.570 17.857,30.505 17.951,30.510 18.199 C 30.515 18.410,30.442 19.146,30.350 19.833 C 30.169 21.178,30.141 35.827,30.314 38.939 L 30.417 40.794 34.083 44.574 L 37.750 48.353 37.851 49.551 C 37.906 50.211,37.932 44.825,37.908 37.583 C 37.860 23.300,37.878 24.000,37.551 24.000 C 37.427 24.000,37.250 23.802,37.158 23.560 C 37.066 23.318,36.949 23.162,36.898 23.213 C 36.783 23.328,36.167 22.727,36.167 22.500 C 36.167 22.408,36.054 22.333,35.917 22.333 C 35.779 22.333,35.667 22.262,35.667 22.174 C 35.667 22.087,35.460 21.821,35.208 21.585 C 34.164 20.605,33.502 19.909,33.501 19.792 C 33.501 19.723,33.375 19.667,33.222 19.667 C 33.069 19.667,32.993 19.619,33.051 19.560 C 33.163 19.448,32.182 18.507,31.948 18.503 C 31.874 18.501,31.858 18.428,31.913 18.340 C 31.967 18.252,31.788 17.981,31.515 17.737 C 31.242 17.494,30.994 17.097,30.964 16.856 C 30.917 16.470,30.894 16.493,30.780 17.045 M128.170 16.875 C 126.463 17.747,126.509 17.343,126.504 31.801 C 126.499 46.403,126.487 46.313,128.529 46.940 C 130.598 47.575,132.109 46.465,132.650 43.913 C 132.659 43.869,132.667 41.546,132.667 38.750 L 132.667 33.667 139.000 33.667 L 145.333 33.667 145.333 39.168 C 145.333 45.243,145.410 45.734,146.478 46.477 C 148.426 47.833,150.710 46.919,151.264 44.562 C 151.560 43.308,151.610 20.530,151.321 19.181 C 150.812 16.811,148.359 15.740,146.567 17.107 C 145.408 17.991,145.333 18.401,145.333 23.847 L 145.333 28.667 139.015 28.667 L 132.696 28.667 132.640 23.681 L 132.583 18.695 132.081 17.972 C 131.502 17.139,130.381 16.500,129.500 16.500 C 129.172 16.500,128.574 16.669,128.170 16.875 M320.957 17.223 C 318.552 17.768,318.641 17.175,318.700 32.346 L 318.750 45.108 319.210 45.802 C 320.315 47.473,322.704 47.460,324.066 45.777 L 324.583 45.136 324.634 40.173 L 324.685 35.210 328.801 35.115 C 337.911 34.904,341.074 32.556,341.074 26.000 C 341.074 21.255,338.842 18.297,334.583 17.397 C 332.929 17.048,322.328 16.912,320.957 17.223 M331.754 22.001 C 333.809 22.527,334.550 23.294,334.877 25.236 C 335.509 28.994,333.406 30.439,327.227 30.492 L 324.667 30.513 324.667 26.090 L 324.667 21.667 327.557 21.667 C 329.904 21.667,330.692 21.729,331.754 22.001 M164.333 24.775 C 160.967 25.227,158.181 26.914,157.455 28.941 C 156.180 32.497,159.540 34.452,161.587 31.345 C 162.797 29.509,163.527 29.025,165.616 28.674 C 168.625 28.169,170.535 29.348,170.569 31.729 L 170.583 32.732 169.333 33.045 C 168.051 33.366,164.911 34.089,164.167 34.235 C 160.173 35.018,159.121 35.426,157.799 36.705 C 155.646 38.789,155.608 42.769,157.720 44.969 C 160.535 47.902,167.267 47.564,170.766 44.315 C 171.114 43.991,171.115 43.991,171.598 44.704 C 173.422 47.397,175.639 47.858,176.931 45.811 C 177.432 45.017,177.434 45.097,176.838 42.823 C 176.348 40.956,176.342 40.883,176.325 36.259 C 176.294 28.073,175.384 26.115,171.128 25.076 C 170.086 24.821,165.500 24.618,164.333 24.775 M183.437 24.830 C 181.718 25.377,181.667 25.708,181.667 36.119 L 181.667 44.844 182.074 45.649 C 183.079 47.631,186.155 47.464,187.033 45.380 C 187.160 45.078,187.268 42.996,187.342 39.417 C 187.532 30.212,188.428 28.749,193.141 29.952 C 195.483 30.549,196.651 29.965,196.787 28.129 C 196.961 25.769,192.996 23.937,189.963 24.977 C 189.385 25.175,187.333 27.162,187.333 27.524 C 187.333 27.603,187.258 27.667,187.167 27.667 C 187.075 27.667,186.998 27.460,186.996 27.208 C 186.982 25.456,185.202 24.267,183.437 24.830 M201.107 24.829 C 200.517 25.017,200.049 25.431,199.691 26.083 C 199.348 26.708,199.180 43.226,199.501 44.731 C 200.037 47.241,203.244 47.915,204.615 45.804 L 205.083 45.083 205.189 39.083 C 205.301 32.773,205.368 32.178,206.121 30.794 C 206.721 29.691,207.413 29.300,208.934 29.202 C 211.986 29.006,212.182 29.523,212.171 37.733 C 212.161 45.280,212.287 45.948,213.859 46.731 C 215.154 47.377,216.664 46.986,217.573 45.770 C 217.900 45.332,217.922 45.020,218.024 39.363 C 218.154 32.164,218.302 31.314,219.631 30.147 C 221.275 28.703,223.366 28.786,224.412 30.336 L 224.917 31.083 225.000 38.000 L 225.083 44.917 225.499 45.642 C 226.600 47.566,229.457 47.487,230.458 45.505 C 231.372 43.697,230.943 29.479,229.924 27.752 C 227.765 24.098,221.532 23.700,218.235 27.006 C 217.244 28.000,217.343 27.993,216.721 27.110 C 214.547 24.025,208.911 23.940,205.667 26.943 L 204.667 27.869 204.667 27.251 C 204.667 25.510,202.852 24.275,201.107 24.829 M244.167 24.763 C 243.938 24.804,243.300 24.918,242.750 25.018 C 233.391 26.707,231.699 41.534,240.369 45.877 C 243.962 47.676,249.637 47.285,252.543 45.039 C 258.661 40.309,257.891 29.293,251.209 25.936 C 249.382 25.019,245.948 24.447,244.167 24.763 M262.389 24.850 C 260.713 25.335,260.647 25.779,260.703 36.218 L 260.750 45.108 261.219 45.817 C 262.285 47.427,264.581 47.463,265.783 45.889 L 266.250 45.277 266.353 39.180 C 266.458 32.952,266.508 32.482,267.179 31.397 C 268.240 29.680,270.006 28.856,271.947 29.172 C 274.448 29.579,274.825 30.958,274.830 39.714 C 274.834 45.205,274.877 45.536,275.689 46.284 C 277.205 47.679,279.571 47.089,280.146 45.171 C 280.524 43.908,280.377 30.806,279.970 29.505 C 278.338 24.295,271.290 22.978,267.042 27.090 C 266.078 28.022,266.000 28.066,265.999 27.674 C 265.994 25.566,264.352 24.281,262.389 24.850 M285.828 24.824 C 283.425 25.554,283.365 26.743,285.468 32.000 C 286.110 33.604,287.509 37.129,288.577 39.833 C 289.644 42.537,290.664 45.101,290.842 45.531 C 291.275 46.572,291.285 46.515,290.338 48.418 C 289.232 50.644,289.054 50.762,286.917 50.707 C 283.976 50.631,283.333 50.979,283.333 52.652 C 283.333 54.465,284.257 55.008,287.541 55.128 C 292.105 55.295,294.076 53.935,295.854 49.394 C 296.136 48.673,296.433 47.933,296.514 47.750 C 296.594 47.567,297.227 45.917,297.919 44.083 C 298.612 42.250,299.285 40.487,299.414 40.167 C 299.665 39.549,299.755 39.313,301.741 34.083 C 302.438 32.250,303.116 30.508,303.249 30.212 C 304.738 26.901,304.040 24.763,301.469 24.758 C 300.088 24.755,299.422 25.536,298.582 28.144 C 298.424 28.635,298.191 29.235,298.065 29.477 C 297.939 29.719,297.835 29.994,297.834 30.089 C 297.834 30.184,297.075 32.397,296.149 35.006 C 295.222 37.615,294.386 40.012,294.292 40.333 L 294.120 40.917 293.964 40.417 C 293.879 40.142,293.745 39.767,293.667 39.583 C 293.590 39.400,293.377 38.800,293.195 38.250 C 292.488 36.115,289.689 28.037,289.361 27.187 C 288.528 25.025,287.478 24.322,285.828 24.824 M350.417 24.898 C 346.640 25.526,343.814 27.989,343.839 30.631 C 343.861 32.963,346.814 33.642,348.168 31.627 C 349.562 29.552,350.164 29.113,352.137 28.733 C 355.304 28.124,357.134 29.188,357.446 31.821 L 357.544 32.642 356.813 32.829 C 356.412 32.931,355.708 33.125,355.250 33.260 C 354.489 33.483,353.427 33.718,348.842 34.677 C 344.885 35.504,342.927 37.514,342.925 40.750 C 342.920 46.915,350.535 49.125,356.860 44.795 L 357.946 44.052 358.338 44.651 C 360.043 47.257,362.063 47.776,363.563 45.993 C 364.127 45.324,364.125 44.696,363.553 42.667 C 363.124 41.146,363.102 40.865,362.994 35.583 C 362.877 29.878,362.828 29.474,362.077 27.989 C 360.735 25.337,355.740 24.012,350.417 24.898 M367.676 25.031 C 365.513 26.158,365.583 26.737,368.885 35.000 C 370.332 38.621,371.586 41.733,371.670 41.917 C 371.755 42.100,371.978 42.662,372.167 43.167 C 372.355 43.671,372.580 44.233,372.667 44.417 C 373.582 46.352,373.538 46.865,372.255 49.150 C 371.425 50.629,371.146 50.757,368.860 50.708 C 366.126 50.648,365.354 51.176,365.550 52.969 C 365.861 55.817,373.129 56.056,375.865 53.307 C 376.977 52.191,377.597 50.892,379.794 45.083 C 380.210 43.983,380.753 42.558,381.001 41.917 C 381.248 41.275,381.808 39.813,382.245 38.667 C 383.136 36.333,384.660 32.382,385.196 31.021 C 386.925 26.632,386.516 24.749,383.836 24.759 C 382.113 24.765,381.822 25.214,379.847 30.917 C 379.180 32.842,378.567 34.567,378.485 34.750 C 378.402 34.933,378.149 35.646,377.923 36.333 C 376.406 40.931,376.386 40.965,375.965 39.711 C 375.819 39.274,375.048 37.042,374.253 34.750 C 373.459 32.458,372.524 29.748,372.177 28.727 C 370.898 24.968,369.694 23.979,367.676 25.031 M247.947 29.439 C 253.263 31.951,251.483 42.833,245.756 42.833 C 240.054 42.833,238.209 33.078,243.236 29.503 C 244.240 28.789,246.507 28.758,247.947 29.439 M170.829 36.375 C 170.748 40.306,169.802 41.990,167.119 42.978 C 164.138 44.076,161.029 42.187,161.829 39.764 C 162.308 38.311,163.435 37.792,168.167 36.842 C 168.671 36.741,169.383 36.551,169.750 36.420 C 170.585 36.121,170.834 36.111,170.829 36.375 M357.500 37.259 C 357.500 40.104,356.558 41.813,354.474 42.748 C 351.282 44.181,348.063 42.634,348.573 39.912 C 348.824 38.574,349.756 37.998,352.750 37.331 C 353.667 37.127,355.017 36.791,355.750 36.584 C 357.622 36.056,357.500 36.009,357.500 37.259 M57.153 43.234 C 57.115 43.272,56.858 43.342,56.583 43.391 C 56.308 43.440,55.896 43.527,55.667 43.585 C 55.438 43.642,55.063 43.717,54.833 43.750 C 54.604 43.783,54.267 43.846,54.083 43.889 C 48.986 45.094,42.485 47.559,41.099 48.812 C 40.833 49.053,40.668 49.157,40.733 49.044 C 40.812 48.905,40.766 48.870,40.592 48.936 C 40.450 48.991,40.333 49.140,40.333 49.268 C 40.333 49.473,40.264 49.511,39.913 49.496 C 39.081 49.463,39.453 50.016,41.955 52.529 C 44.285 54.871,45.167 55.537,45.167 54.955 C 45.167 54.877,45.242 54.860,45.333 54.917 C 45.425 54.973,45.500 54.956,45.500 54.879 C 45.500 54.634,46.449 54.167,46.947 54.167 C 47.210 54.167,47.574 54.065,47.755 53.941 C 47.935 53.816,48.496 53.582,49.000 53.421 C 49.504 53.259,50.142 53.028,50.417 52.907 C 50.692 52.787,51.479 52.520,52.167 52.315 C 52.854 52.110,53.492 51.919,53.583 51.891 C 54.884 51.492,59.143 50.587,59.244 50.689 C 59.277 50.723,59.326 55.153,59.354 60.534 C 59.381 65.916,59.439 70.283,59.482 70.240 C 59.526 70.196,60.899 71.494,62.534 73.122 C 65.328 75.906,65.879 76.398,65.819 76.057 C 65.756 75.706,65.849 75.490,66.018 75.594 C 66.141 75.670,66.166 75.595,66.094 75.368 C 66.035 75.181,66.068 74.978,66.167 74.917 C 66.266 74.855,66.298 74.652,66.239 74.465 C 66.168 74.240,66.193 74.163,66.314 74.238 C 66.428 74.309,66.459 74.254,66.397 74.092 C 66.341 73.946,66.386 73.833,66.500 73.833 C 66.611 73.833,66.663 73.730,66.614 73.604 C 66.566 73.477,66.614 73.286,66.721 73.179 C 66.984 72.917,67.105 54.130,66.848 53.456 C 66.753 53.205,66.556 53.000,66.411 53.000 C 66.266 53.000,66.182 52.944,66.224 52.875 C 66.302 52.749,64.682 51.119,64.402 51.042 C 64.318 51.019,64.250 50.922,64.250 50.826 C 64.250 50.730,64.008 50.441,63.713 50.183 C 63.417 49.925,63.223 49.666,63.282 49.607 C 63.341 49.548,63.282 49.500,63.151 49.500 C 63.020 49.500,62.773 49.314,62.602 49.086 C 62.431 48.859,62.224 48.715,62.142 48.766 C 62.059 48.816,62.010 48.796,62.031 48.721 C 62.081 48.548,61.627 47.833,61.468 47.833 C 61.403 47.833,60.979 47.463,60.526 47.010 C 60.073 46.557,59.645 46.238,59.574 46.302 C 59.504 46.365,59.501 46.322,59.567 46.207 C 59.638 46.085,59.580 45.956,59.428 45.898 C 59.285 45.843,59.208 45.735,59.256 45.658 C 59.303 45.580,59.206 45.443,59.038 45.354 C 58.093 44.848,57.013 43.533,57.361 43.313 C 57.483 43.235,57.502 43.171,57.403 43.169 C 57.303 43.168,57.191 43.197,57.153 43.234 M174.911 65.750 C 174.914 66.578,174.986 67.168,175.083 67.169 C 175.175 67.171,175.147 67.237,175.020 67.317 C 174.382 67.721,175.117 67.833,178.409 67.833 C 181.729 67.833,182.548 67.692,181.823 67.244 C 181.734 67.189,181.708 67.068,181.766 66.975 C 181.967 66.648,181.975 65.000,181.775 64.997 C 181.669 64.996,181.695 64.923,181.833 64.833 C 182.015 64.716,182.024 64.671,181.865 64.669 C 181.745 64.668,181.693 64.592,181.750 64.500 C 181.817 64.391,180.653 64.333,178.379 64.333 L 174.906 64.333 174.911 65.750 M78.646 67.542 C 78.609 71.764,78.851 73.670,79.710 75.917 C 82.583 83.432,89.359 88.116,97.167 87.982 C 98.404 87.961,99.717 87.873,100.083 87.786 C 100.450 87.699,100.854 87.624,100.980 87.620 C 101.112 87.615,101.028 87.478,100.784 87.301 C 100.071 86.781,99.333 86.043,99.333 85.850 C 99.333 85.749,99.225 85.667,99.092 85.667 C 98.960 85.667,98.749 85.460,98.623 85.208 C 98.497 84.956,98.306 84.769,98.197 84.792 C 98.089 84.815,98.000 84.756,98.000 84.662 C 98.000 84.567,97.323 83.817,96.495 82.995 C 95.667 82.173,95.048 81.500,95.120 81.499 C 95.191 81.499,95.014 81.355,94.725 81.178 C 94.416 80.990,94.210 80.733,94.225 80.554 C 94.244 80.327,94.131 80.248,93.781 80.243 C 93.523 80.239,93.253 80.140,93.181 80.024 C 93.109 79.907,92.945 79.791,92.817 79.767 C 92.501 79.706,91.631 79.293,91.381 79.085 C 91.269 78.993,91.066 78.823,90.929 78.708 C 90.793 78.594,90.621 78.500,90.548 78.500 C 89.774 78.500,87.191 74.708,86.687 72.833 C 86.601 72.512,86.523 72.375,86.515 72.527 C 86.498 72.837,85.973 72.837,85.870 72.527 C 85.835 72.421,85.681 72.332,85.528 72.331 C 85.323 72.329,85.306 72.293,85.462 72.194 C 85.616 72.096,85.565 72.002,85.272 71.845 C 85.051 71.727,84.787 71.447,84.684 71.222 C 84.574 70.980,84.421 70.863,84.307 70.933 C 84.185 71.009,84.161 70.978,84.241 70.848 C 84.321 70.719,84.244 70.612,84.032 70.557 C 83.848 70.509,83.658 70.319,83.610 70.134 C 83.552 69.915,83.447 69.843,83.303 69.927 C 83.182 69.996,83.140 69.991,83.209 69.915 C 83.337 69.774,82.886 69.167,82.654 69.167 C 82.496 69.167,81.519 68.203,81.597 68.125 C 81.628 68.094,81.450 67.906,81.202 67.708 C 80.285 66.975,79.923 66.644,80.167 66.761 C 80.304 66.827,80.044 66.495,79.590 66.024 C 79.135 65.552,78.741 65.167,78.715 65.167 C 78.688 65.167,78.657 66.235,78.646 67.542 M173.917 65.628 C 173.717 65.774,173.650 66.333,173.831 66.333 C 173.902 66.333,174.053 66.221,174.167 66.083 C 174.321 65.897,174.324 65.833,174.177 65.833 C 174.069 65.833,174.027 65.758,174.083 65.667 C 174.204 65.471,174.148 65.457,173.917 65.628 M126.042 66.750 C 126.044 67.117,126.078 67.247,126.118 67.040 C 126.158 66.832,126.156 66.532,126.115 66.373 C 126.073 66.214,126.040 66.383,126.042 66.750 " stroke="none" fill="#23cadc" fill-rule="evenodd"></path><path id="path2" d="M46.833 3.432 C 44.984 3.650,41.863 4.474,41.425 4.860 C 41.338 4.937,41.132 5.000,40.967 5.000 C 40.802 5.000,40.667 5.062,40.667 5.138 C 40.667 5.214,40.292 5.452,39.833 5.667 C 39.375 5.881,39.000 6.111,39.000 6.176 C 39.000 6.241,38.803 6.424,38.563 6.581 C 38.322 6.739,38.177 6.785,38.239 6.684 C 38.406 6.415,38.241 6.459,38.001 6.749 C 37.828 6.958,38.138 7.337,39.946 9.124 C 42.919 12.062,43.128 12.229,43.441 11.916 C 43.664 11.693,44.019 11.591,44.375 11.647 C 44.444 11.658,44.500 11.587,44.500 11.490 C 44.500 11.393,44.578 11.362,44.674 11.421 C 44.770 11.480,44.938 11.455,45.049 11.366 C 46.745 9.991,52.680 10.953,55.286 13.025 C 58.503 15.583,59.326 17.874,59.330 24.285 L 59.333 28.653 60.203 29.452 C 61.420 30.568,63.302 32.442,65.299 34.524 L 67.000 36.299 67.000 28.004 C 67.000 18.746,66.944 18.088,65.915 15.340 C 65.590 14.474,65.270 13.724,65.204 13.674 C 65.138 13.624,64.953 13.302,64.794 12.958 C 64.635 12.615,64.425 12.333,64.326 12.333 C 64.228 12.333,64.191 12.263,64.244 12.177 C 64.297 12.090,64.170 11.854,63.962 11.652 C 63.754 11.450,63.696 11.348,63.833 11.426 C 63.971 11.505,63.868 11.309,63.604 10.993 C 63.341 10.676,63.022 10.357,62.896 10.283 C 62.770 10.210,62.667 10.037,62.667 9.899 C 62.667 9.760,62.592 9.693,62.500 9.750 C 62.408 9.807,62.333 9.771,62.333 9.670 C 62.333 9.569,62.023 9.171,61.643 8.785 C 61.263 8.399,61.012 8.189,61.085 8.317 C 61.174 8.474,61.155 8.512,61.026 8.433 C 60.920 8.367,60.833 8.193,60.833 8.046 C 60.833 7.898,60.791 7.820,60.740 7.871 C 60.688 7.923,60.297 7.635,59.871 7.232 C 59.179 6.579,58.872 6.415,58.458 6.480 C 58.390 6.491,58.352 6.444,58.375 6.375 C 58.398 6.306,58.355 6.250,58.280 6.250 C 58.205 6.250,58.069 6.117,57.978 5.955 C 57.887 5.792,57.742 5.703,57.656 5.756 C 57.570 5.810,57.500 5.774,57.500 5.677 C 57.500 5.579,57.350 5.500,57.167 5.500 C 56.983 5.500,56.833 5.436,56.833 5.357 C 56.833 5.222,54.507 4.234,53.761 4.052 C 51.662 3.539,48.401 3.247,46.833 3.432 M78.667 33.720 C 78.667 39.962,78.622 41.668,78.458 41.674 C 78.344 41.678,77.762 41.720,77.167 41.767 C 76.571 41.815,75.446 41.879,74.667 41.910 C 73.887 41.941,73.178 41.974,73.089 41.983 C 73.000 41.993,73.319 42.396,73.797 42.880 C 74.275 43.364,74.667 43.803,74.667 43.854 C 74.667 43.905,77.254 46.534,80.417 49.696 L 86.167 55.445 86.167 54.249 C 86.167 53.591,86.215 52.035,86.275 50.790 L 86.384 48.528 86.984 48.402 C 87.313 48.334,87.639 48.290,87.707 48.305 C 88.390 48.457,96.769 46.184,97.404 45.674 C 97.580 45.532,97.673 45.504,97.611 45.611 C 97.525 45.758,97.618 45.760,97.993 45.618 L 98.487 45.432 98.110 45.174 C 97.707 44.900,97.000 44.213,97.000 44.097 C 97.000 44.030,96.541 43.567,93.801 40.872 C 92.329 39.425,91.943 39.322,90.333 39.949 C 90.196 40.002,89.971 40.066,89.833 40.091 C 89.696 40.115,88.995 40.255,88.277 40.401 C 86.104 40.843,86.337 41.350,86.307 36.125 C 86.293 33.627,86.236 31.940,86.182 32.375 L 86.083 33.167 84.725 31.792 C 83.978 31.036,83.116 30.185,82.809 29.901 C 82.501 29.617,82.050 29.167,81.806 28.901 C 81.562 28.635,80.756 27.822,80.014 27.095 L 78.667 25.773 78.667 33.720 M107.972 55.375 C 107.957 55.398,107.894 59.129,107.831 63.667 C 107.716 72.073,107.612 73.339,106.979 74.107 C 106.892 74.212,106.833 74.362,106.847 74.441 C 106.911 74.799,106.817 75.009,106.641 74.901 C 106.514 74.822,106.494 74.856,106.583 75.000 C 106.666 75.133,106.616 75.291,106.455 75.409 C 106.187 75.605,108.032 77.584,110.725 79.989 C 111.682 80.844,111.704 80.854,111.943 80.513 C 112.077 80.322,112.142 80.095,112.088 80.008 C 112.035 79.921,112.143 79.768,112.329 79.669 C 112.955 79.334,114.295 76.440,114.954 74.000 C 115.356 72.511,115.386 72.124,115.458 67.491 L 115.535 62.565 114.316 61.408 C 113.645 60.771,111.983 59.144,110.623 57.792 C 108.334 55.518,108.050 55.258,107.972 55.375 M146.208 64.292 C 155.352 64.315,170.315 64.315,179.458 64.292 C 188.602 64.268,181.121 64.248,162.833 64.248 C 144.546 64.248,137.065 64.268,146.208 64.292 " stroke="none" fill="#42d8d2" fill-rule="evenodd"></path><path id="path3" d="M38.833 6.167 C 38.833 6.258,38.729 6.333,38.601 6.333 C 38.473 6.333,38.326 6.446,38.273 6.584 C 38.191 6.797,38.238 6.794,38.588 6.565 C 38.954 6.325,39.143 6.000,38.917 6.000 C 38.871 6.000,38.833 6.075,38.833 6.167 M37.667 7.009 C 37.667 7.091,37.459 7.265,37.205 7.397 C 36.319 7.855,33.842 10.540,33.095 11.851 C 32.665 12.605,31.527 14.812,31.490 14.963 C 31.473 15.029,31.386 15.271,31.295 15.500 C 30.877 16.551,30.936 17.223,31.489 17.715 C 31.777 17.970,31.967 18.252,31.913 18.340 C 31.858 18.428,31.874 18.501,31.948 18.503 C 32.182 18.507,33.163 19.448,33.051 19.560 C 32.993 19.619,33.069 19.667,33.222 19.667 C 33.375 19.667,33.501 19.723,33.501 19.792 C 33.502 19.909,34.164 20.605,35.208 21.585 C 35.460 21.821,35.667 22.087,35.667 22.174 C 35.667 22.262,35.779 22.333,35.917 22.333 C 36.054 22.333,36.167 22.408,36.167 22.500 C 36.167 22.727,36.783 23.328,36.898 23.213 C 36.949 23.162,37.066 23.318,37.158 23.560 C 37.250 23.802,37.428 24.000,37.554 24.000 C 37.724 24.000,37.792 24.311,37.818 25.204 C 37.896 27.873,38.015 26.347,37.983 23.078 C 37.931 17.609,39.357 14.532,42.934 12.395 C 43.233 12.216,43.224 12.185,42.767 11.821 C 42.501 11.610,41.245 10.407,39.975 9.148 C 38.706 7.889,37.667 6.926,37.667 7.009 M43.750 11.744 C 43.475 11.870,43.367 11.979,43.510 11.986 C 43.653 11.994,43.915 11.890,44.093 11.755 C 44.495 11.451,44.396 11.448,43.750 11.744 M78.578 31.583 C 78.578 37.175,78.599 39.438,78.625 36.613 C 78.651 33.788,78.651 29.213,78.625 26.446 C 78.599 23.680,78.578 25.992,78.578 31.583 M59.371 35.903 C 59.411 42.097,59.386 42.973,59.167 42.972 C 58.275 42.966,57.162 43.294,57.212 43.547 C 57.259 43.783,58.619 45.130,59.038 45.354 C 59.206 45.443,59.303 45.580,59.256 45.658 C 59.208 45.735,59.285 45.843,59.428 45.898 C 59.580 45.956,59.638 46.085,59.567 46.207 C 59.501 46.322,59.504 46.365,59.574 46.302 C 59.645 46.238,60.073 46.557,60.526 47.010 C 60.979 47.463,61.403 47.833,61.468 47.833 C 61.627 47.833,62.081 48.548,62.031 48.721 C 62.010 48.796,62.059 48.816,62.142 48.766 C 62.224 48.715,62.431 48.859,62.602 49.086 C 62.773 49.314,63.020 49.500,63.151 49.500 C 63.282 49.500,63.341 49.548,63.282 49.607 C 63.223 49.666,63.417 49.925,63.713 50.183 C 64.008 50.441,64.250 50.730,64.250 50.826 C 64.250 50.922,64.287 50.989,64.333 50.977 C 64.491 50.932,66.301 52.750,66.224 52.875 C 66.182 52.944,66.266 53.000,66.412 53.000 C 66.558 53.000,66.745 53.169,66.828 53.375 C 66.931 53.631,66.982 53.100,66.989 51.708 L 67.000 49.667 67.458 49.665 C 67.935 49.664,72.687 49.537,76.375 49.428 L 78.500 49.365 78.535 59.641 C 78.554 65.293,78.610 68.845,78.660 67.535 L 78.750 65.153 79.583 66.017 C 80.042 66.492,80.304 66.827,80.167 66.761 C 79.923 66.644,80.285 66.975,81.202 67.708 C 81.450 67.906,81.628 68.094,81.597 68.125 C 81.519 68.203,82.496 69.167,82.654 69.167 C 82.886 69.167,83.337 69.774,83.209 69.915 C 83.140 69.991,83.182 69.996,83.303 69.927 C 83.447 69.843,83.552 69.915,83.610 70.134 C 83.658 70.319,83.848 70.509,84.032 70.557 C 84.244 70.612,84.321 70.719,84.241 70.848 C 84.161 70.978,84.185 71.009,84.307 70.933 C 84.421 70.863,84.574 70.980,84.684 71.222 C 84.787 71.447,85.051 71.727,85.272 71.845 C 85.565 72.002,85.616 72.096,85.462 72.194 C 85.306 72.293,85.323 72.329,85.528 72.331 C 85.681 72.332,85.835 72.421,85.870 72.527 C 86.073 73.135,86.536 72.790,86.424 72.113 C 86.361 71.730,86.300 66.917,86.289 61.417 C 86.278 55.917,86.243 52.321,86.213 53.426 L 86.157 55.435 80.412 49.691 C 77.252 46.532,74.667 43.900,74.667 43.842 C 74.667 43.785,74.293 43.369,73.836 42.919 C 73.236 42.328,73.062 42.060,73.211 41.956 C 73.327 41.875,72.024 41.858,70.208 41.919 L 67.000 42.025 67.000 39.162 L 67.000 36.299 65.304 34.524 C 63.128 32.247,59.621 28.836,59.455 28.834 C 59.384 28.834,59.347 32.015,59.371 35.903 M106.667 74.695 C 106.667 74.803,106.543 75.028,106.391 75.195 C 106.233 75.370,106.195 75.500,106.303 75.500 C 106.407 75.500,106.608 75.275,106.750 75.000 C 106.897 74.715,106.935 74.500,106.838 74.500 C 106.744 74.500,106.667 74.588,106.667 74.695 M105.793 76.140 C 104.463 78.390,100.840 80.401,97.750 80.603 C 97.108 80.645,96.452 80.707,96.292 80.741 C 96.131 80.775,96.000 80.733,96.000 80.649 C 96.000 80.564,95.773 80.535,95.495 80.584 C 95.217 80.633,94.850 80.598,94.678 80.506 C 94.084 80.188,94.115 80.807,94.712 81.171 C 95.008 81.351,95.179 81.499,95.092 81.499 C 95.006 81.500,95.231 81.773,95.592 82.106 C 95.954 82.439,96.225 82.795,96.194 82.898 C 96.164 83.000,96.190 83.032,96.253 82.969 C 96.381 82.842,98.000 84.421,98.000 84.673 C 98.000 84.761,98.089 84.815,98.197 84.792 C 98.306 84.769,98.497 84.956,98.623 85.208 C 98.749 85.460,98.960 85.667,99.092 85.667 C 99.225 85.667,99.333 85.750,99.333 85.853 C 99.333 86.058,100.670 87.333,100.885 87.333 C 100.959 87.333,100.980 87.398,100.930 87.478 C 100.823 87.652,102.191 87.414,102.617 87.185 C 102.782 87.096,103.498 86.820,104.208 86.572 C 104.919 86.325,105.500 86.053,105.500 85.968 C 105.500 85.883,105.575 85.860,105.667 85.917 C 105.758 85.973,105.833 85.940,105.833 85.843 C 105.833 85.746,105.915 85.667,106.016 85.667 C 106.625 85.667,110.708 82.309,111.419 81.223 C 111.657 80.860,111.632 80.809,110.876 80.130 C 110.440 79.739,109.240 78.593,108.209 77.584 C 106.030 75.452,106.154 75.527,105.793 76.140 M112.257 79.725 C 112.088 79.848,112.021 79.993,112.108 80.047 C 112.195 80.101,112.357 80.000,112.468 79.823 C 112.706 79.441,112.668 79.423,112.257 79.725 " stroke="none" fill="#31d1d4" fill-rule="evenodd"></path><path id="path4" d="M30.248 64.833 C 30.266 68.821,30.330 72.271,30.390 72.500 C 30.450 72.729,30.545 73.179,30.602 73.500 C 31.000 75.757,32.851 79.719,33.980 80.734 C 34.174 80.909,34.333 81.138,34.333 81.244 C 34.333 81.587,37.058 84.057,38.507 85.028 C 42.949 88.003,48.734 88.817,54.000 87.209 C 54.504 87.055,54.954 86.920,55.000 86.908 C 55.099 86.884,55.578 86.698,56.208 86.440 C 56.867 86.170,56.866 86.167,54.625 83.930 C 52.229 81.538,51.500 80.739,51.500 80.504 C 51.500 80.410,51.387 80.333,51.250 80.333 C 51.112 80.333,51.000 80.390,51.000 80.458 C 51.000 80.527,50.719 80.594,50.375 80.606 C 50.031 80.618,49.413 80.654,49.000 80.684 C 45.744 80.924,41.801 78.969,39.889 76.167 C 38.256 73.773,37.997 72.662,37.962 67.917 C 37.948 65.992,37.910 64.998,37.878 65.708 C 37.846 66.419,37.796 67.000,37.768 67.000 C 37.740 67.000,36.862 66.121,35.817 65.047 C 34.772 63.973,33.114 62.296,32.134 61.320 L 30.351 59.545 30.283 58.564 C 30.246 58.025,30.230 60.846,30.248 64.833 M189.639 67.958 C 224.503 67.981,281.503 67.981,316.305 67.958 C 351.108 67.935,322.583 67.916,252.917 67.916 C 183.250 67.916,154.775 67.935,189.639 67.958 " stroke="none" fill="#07b2e5" fill-rule="evenodd"></path><path id="path5" d="M126.202 66.040 L 126.250 67.750 150.577 67.790 C 168.581 67.820,174.948 67.781,175.077 67.641 C 175.200 67.506,175.190 67.485,175.042 67.569 C 174.927 67.633,174.833 67.607,174.833 67.510 C 174.833 67.413,174.927 67.332,175.042 67.331 C 175.171 67.329,175.187 67.282,175.083 67.206 C 174.992 67.138,174.915 66.483,174.913 65.750 L 174.910 64.417 150.533 64.373 L 126.155 64.330 126.202 66.040 M174.083 65.667 C 174.027 65.758,174.069 65.833,174.177 65.833 C 174.324 65.833,174.321 65.897,174.167 66.083 C 174.053 66.221,173.902 66.333,173.831 66.333 C 173.650 66.333,173.717 65.774,173.917 65.628 C 174.148 65.457,174.204 65.471,174.083 65.667 " stroke="none" fill="#2fd9f9" fill-rule="evenodd"></path><path id="path6" d="M92.882 3.584 C 91.947 3.800,90.934 4.088,90.632 4.223 C 90.330 4.357,89.660 4.655,89.143 4.883 C 86.755 5.938,83.801 8.371,82.182 10.617 C 79.482 14.362,78.559 17.740,78.637 23.586 L 78.667 25.756 79.730 26.836 C 80.315 27.430,81.008 28.111,81.272 28.348 C 81.535 28.585,81.949 28.998,82.191 29.265 C 82.434 29.532,83.417 30.521,84.375 31.464 L 86.117 33.178 86.224 32.047 C 86.283 31.425,86.331 28.472,86.332 25.485 C 86.333 19.414,86.458 18.469,87.513 16.548 C 92.015 8.343,103.686 9.011,107.061 17.667 C 108.197 20.579,108.170 27.206,107.011 29.746 C 105.720 32.577,102.229 35.779,99.266 36.850 C 98.936 36.969,98.667 37.115,98.667 37.174 C 98.667 37.233,98.348 37.376,97.958 37.493 C 97.569 37.609,96.950 37.843,96.583 38.011 C 95.456 38.530,94.167 39.001,94.167 38.894 C 94.167 38.838,94.073 38.868,93.958 38.960 C 93.844 39.053,93.487 39.183,93.167 39.250 C 92.846 39.318,92.535 39.401,92.476 39.435 C 92.417 39.469,92.970 40.079,93.705 40.790 C 95.743 42.762,97.000 44.020,97.000 44.088 C 97.000 44.122,97.169 44.329,97.375 44.548 C 97.868 45.071,98.667 45.582,98.667 45.374 C 98.667 45.284,99.023 45.112,99.458 44.993 C 99.894 44.873,100.587 44.627,101.000 44.445 C 101.412 44.264,101.851 44.094,101.975 44.070 C 102.485 43.968,105.010 42.562,106.333 41.644 L 107.750 40.661 107.833 48.539 C 107.879 52.872,107.954 56.165,108.000 55.858 L 108.083 55.300 111.659 58.816 C 113.626 60.751,115.295 62.333,115.368 62.333 C 115.574 62.333,115.531 20.122,115.323 18.833 C 113.599 8.142,103.332 1.165,92.882 3.584 M126.065 64.405 C 126.015 64.535,126.007 64.817,126.047 65.030 C 126.104 65.327,126.127 65.293,126.144 64.881 L 126.167 64.345 127.958 64.291 L 129.750 64.237 127.953 64.202 C 126.526 64.174,126.137 64.216,126.065 64.405 M338.627 64.285 C 338.834 64.324,339.134 64.323,339.294 64.281 C 339.453 64.239,339.283 64.207,338.917 64.209 C 338.550 64.211,338.420 64.245,338.627 64.285 M346.492 64.292 C 350.951 64.326,352.436 64.388,352.546 64.544 C 352.662 64.707,352.710 64.707,352.777 64.542 C 352.823 64.427,352.972 64.333,353.108 64.333 C 353.449 64.333,353.352 65.704,353.000 65.863 C 352.797 65.955,352.805 65.979,353.045 65.988 C 353.291 65.998,353.329 66.120,353.272 66.729 C 353.234 67.129,353.256 67.542,353.321 67.646 C 353.407 67.785,356.897 67.824,366.510 67.793 L 379.583 67.750 379.696 66.250 C 379.757 65.425,379.771 64.619,379.726 64.458 C 379.649 64.182,378.591 64.169,360.114 64.206 C 349.372 64.228,343.242 64.266,346.492 64.292 " stroke="none" fill="#4beccc" fill-rule="evenodd"></path><path id="path7" d="M30.237 48.431 L 30.250 59.446 32.083 61.270 C 33.092 62.274,34.772 63.973,35.817 65.047 C 36.862 66.121,37.732 67.000,37.750 67.000 C 37.768 67.000,37.830 66.231,37.887 65.292 C 38.109 61.665,39.603 59.019,42.750 56.680 C 43.117 56.408,43.604 56.041,43.833 55.866 C 44.063 55.690,44.419 55.494,44.625 55.429 C 44.831 55.364,45.000 55.243,45.000 55.161 C 45.000 55.078,44.906 55.046,44.792 55.090 C 44.677 55.134,43.384 53.970,41.919 52.502 C 40.453 51.034,39.359 49.833,39.488 49.833 C 39.617 49.833,39.676 49.787,39.619 49.730 C 39.562 49.673,39.197 49.861,38.808 50.147 C 37.857 50.846,37.834 50.832,37.830 49.542 L 37.828 48.417 34.090 44.583 L 30.352 40.750 30.288 39.083 C 30.253 38.167,30.230 42.373,30.237 48.431 M45.958 54.460 C 45.706 54.616,45.500 54.813,45.500 54.898 C 45.500 54.982,45.640 54.925,45.811 54.771 C 45.981 54.616,46.291 54.457,46.500 54.417 C 46.994 54.322,47.144 54.165,46.736 54.171 C 46.560 54.174,46.210 54.303,45.958 54.460 M59.389 68.833 C 59.389 69.521,59.419 69.802,59.455 69.458 C 59.491 69.115,59.491 68.552,59.455 68.208 C 59.419 67.865,59.389 68.146,59.389 68.833 M59.446 70.286 C 59.395 70.368,59.354 70.656,59.355 70.926 C 59.356 71.442,59.318 71.654,59.015 72.776 C 58.210 75.769,55.630 78.729,52.875 79.825 C 52.577 79.944,52.333 80.111,52.333 80.197 C 52.333 80.283,52.265 80.311,52.182 80.259 C 51.985 80.137,51.500 80.324,51.500 80.522 C 51.500 80.774,56.683 86.167,56.925 86.167 C 56.966 86.167,57.001 86.035,57.003 85.875 C 57.005 85.648,57.037 85.633,57.148 85.809 C 57.239 85.953,57.330 85.973,57.397 85.865 C 57.455 85.771,57.972 85.431,58.546 85.111 C 59.687 84.472,60.030 84.194,61.720 82.533 C 62.851 81.423,64.333 79.519,64.333 79.178 C 64.333 79.080,64.396 79.000,64.472 79.000 C 64.608 79.000,65.520 77.134,65.601 76.687 C 65.625 76.560,65.724 76.376,65.822 76.278 C 65.920 76.180,65.999 75.946,65.997 75.758 C 65.995 75.486,65.964 75.466,65.842 75.659 C 65.758 75.792,65.732 75.970,65.784 76.055 C 66.125 76.606,65.128 75.707,62.522 73.110 C 60.881 71.475,59.496 70.205,59.446 70.286 M66.262 74.111 C 66.204 74.264,66.244 74.470,66.352 74.570 C 66.498 74.704,66.525 74.680,66.454 74.479 C 66.402 74.329,66.444 74.123,66.546 74.020 C 66.679 73.888,66.680 73.833,66.551 73.833 C 66.451 73.833,66.321 73.958,66.262 74.111 " stroke="none" fill="#0cbce4" fill-rule="evenodd"></path><path id="path8" d="M181.958 64.680 C 181.798 64.856,181.731 65.000,181.809 65.000 C 181.887 65.000,181.934 65.638,181.913 66.417 L 181.875 67.834 244.432 67.833 C 303.869 67.832,306.983 67.817,306.880 67.541 C 306.788 67.295,306.811 67.283,307.029 67.460 C 307.253 67.641,307.276 67.611,307.205 67.236 C 307.145 66.921,307.084 66.864,306.982 67.026 C 306.898 67.160,306.874 66.988,306.922 66.603 C 306.982 66.124,306.931 65.903,306.727 65.753 C 306.532 65.611,306.506 65.516,306.641 65.432 C 306.747 65.367,306.833 65.393,306.833 65.490 C 306.833 65.587,306.916 65.667,307.018 65.667 C 307.128 65.667,307.154 65.549,307.083 65.375 C 307.017 65.215,306.953 64.933,306.940 64.750 C 306.904 64.235,182.428 64.165,181.958 64.680 " stroke="none" fill="#4ca4e4" fill-rule="evenodd"></path></g></svg>